<?xml version="1.0" encoding="iso-8859-1"?>
<!-- Generator: Adobe Illustrator 19.0.0, SVG Export Plug-In . SVG Version: 6.00 Build 0)  -->
<svg version="1.1" id="Layer_1" xmlns="http://www.w3.org/2000/svg" xmlns:xlink="http://www.w3.org/1999/xlink" x="0px" y="0px"
	 viewBox="0 0 511.994 511.994" style="enable-background:new 0 0 511.994 511.994;" xml:space="preserve">
<g>
	<g>
		<path d="M511.83,13.758c0.008-0.009-0.632-3.985-1.553-6.093c-2.799-6.451-10.308-9.421-16.828-6.596
			C272.197,97.692,88.099,282.089,0.965,494.313c-2.688,6.554,0.435,14.029,6.963,16.725c1.587,0.648,3.234,0.956,4.855,0.956
			c5.018,0,9.788-3.004,11.819-7.927c8.311-20.25,17.792-40.149,27.87-59.827c0.316,0.06,0.58,0.282,0.896,0.333
			c0,0,3.951,0.597,11.537,0.597c31.65,0,146.867-11.691,300.51-162.065c7.287-7.125,10.837-16.452,10.01-26.266
			c-1.058-12.527-8.525-21.956-18.569-30.447c8.422,0.162,16.777,0.316,24.354,0.316c26.052,0,42.539-1.024,51.703-15.181
			C442.864,196.158,515.892,80.617,511.83,13.758z M411.47,197.592c-1.818,2.807-14.251,3.507-30.251,3.507
			c-15.812,0-35.106-0.683-51.081-0.683c-16.299,0-29.141,0.708-31.317,3.575c-12.74,16.768,65.758,44.143,48.734,60.8
			C201.72,407.529,95.787,419.398,65.579,419.544c91.443-164.429,242.594-304.367,420.019-386.603
			C479.839,71.605,452.558,134.146,411.47,197.592z"/>
	</g>
</g>
<g>
</g>
<g>
</g>
<g>
</g>
<g>
</g>
<g>
</g>
<g>
</g>
<g>
</g>
<g>
</g>
<g>
</g>
<g>
</g>
<g>
</g>
<g>
</g>
<g>
</g>
<g>
</g>
<g>
</g>
</svg>
